<svg width="16" height="28" viewBox="0 0 16 28" fill="none" xmlns="http://www.w3.org/2000/svg">
<mask id="path-1-inside-1_272_639" fill="white">
<path d="M15.715 13.364L1.84798 0.298019C1.44598 -0.078981 0.771977 -0.100981 0.339977 0.249019C-0.0910231 0.600019 -0.116023 1.19002 0.284977 1.56802L13.478 14L0.284977 26.432C-0.115023 26.81 -0.0900236 27.401 0.340976 27.751C0.545976 27.917 0.806977 28 1.06598 28C1.35198 28 1.63698 27.9 1.84798 27.702L15.715 14.636C16.095 14.277 16.095 13.723 15.715 13.364Z"/>
</mask>
<path d="M15.715 13.364L1.84798 0.298019C1.44598 -0.078981 0.771977 -0.100981 0.339977 0.249019C-0.0910231 0.600019 -0.116023 1.19002 0.284977 1.56802L13.478 14L0.284977 26.432C-0.115023 26.81 -0.0900236 27.401 0.340976 27.751C0.545976 27.917 0.806977 28 1.06598 28C1.35198 28 1.63698 27.9 1.84798 27.702L15.715 14.636C16.095 14.277 16.095 13.723 15.715 13.364Z" fill="white"/>
<path d="M15.715 13.364L19.8354 9.00257L19.8296 8.99713L15.715 13.364ZM1.84798 0.298019L5.96263 -4.06888L5.95235 -4.07853L1.84798 0.298019ZM0.339977 0.249019L-3.43707 -4.41294L-3.44297 -4.40816L-3.44886 -4.40337L0.339977 0.249019ZM0.284977 1.56802L-3.83061 5.93402L-3.82985 5.93473L0.284977 1.56802ZM13.478 14L17.5928 18.3667L22.2268 14L17.5928 9.63331L13.478 14ZM0.284977 26.432L-3.82986 22.0653L-3.83604 22.0711L0.284977 26.432ZM0.340976 27.751L-3.44136 32.4087L-3.43487 32.414L0.340976 27.751ZM1.84798 27.702L5.9537 32.0773L5.96262 32.0689L1.84798 27.702ZM15.715 14.636L19.8296 19.0029L19.8354 18.9975L15.715 14.636ZM19.8296 8.99713L5.96262 -4.06887L-2.26667 4.66491L11.6003 17.7309L19.8296 8.99713ZM5.95235 -4.07853C3.33512 -6.53299 -0.705928 -6.62568 -3.43707 -4.41294L4.11703 4.91098C3.10026 5.73475 1.92765 6.03083 0.910096 5.99772C-0.106435 5.96464 -1.27826 5.59187 -2.25639 4.67456L5.95235 -4.07853ZM-3.44886 -4.40337C-6.63807 -1.80612 -6.92014 3.0217 -3.83061 5.93402L4.40056 -2.79798C5.42115 -1.83593 6.06065 -0.41172 5.99521 1.14962C5.93003 2.705 5.18181 4.04386 4.12881 4.90141L-3.44886 -4.40337ZM-3.82985 5.93473L9.36315 18.3667L17.5928 9.63331L4.39981 -2.79869L-3.82985 5.93473ZM9.36315 9.63331L-3.82985 22.0653L4.39981 30.7987L17.5928 18.3667L9.36315 9.63331ZM-3.83604 22.0711C-6.91447 24.9803 -6.64176 29.8098 -3.44136 32.4087L4.12331 23.0933C5.18381 23.9545 5.93017 25.2964 5.99596 26.8478C6.06195 28.4037 5.42726 29.8278 4.406 30.7929L-3.83604 22.0711ZM-3.43487 32.414C-2.06133 33.5262 -0.432868 34 1.06598 34V22C2.04682 22 3.15329 22.3079 4.11682 23.0881L-3.43487 32.414ZM1.06598 34C2.70283 34 4.50936 33.4326 5.95369 32.0773L-2.25774 23.3267C-1.23541 22.3674 0.00112854 22 1.06598 22V34ZM5.96262 32.0689L19.8296 19.0029L11.6003 10.2691L-2.26667 23.3351L5.96262 32.0689ZM19.8354 18.9975C22.7215 16.2708 22.7215 11.7292 19.8354 9.00258L11.5946 17.7255C10.6317 16.8158 9.99998 15.4856 9.99998 14C9.99998 12.5144 10.6317 11.1842 11.5946 10.2746L19.8354 18.9975Z" fill="white" mask="url(#path-1-inside-1_272_639)"/>
</svg>
